<svg xmlns="http://www.w3.org/2000/svg" xmlns:xlink="http://www.w3.org/1999/xlink" version="1.1" width="256" height="256" viewBox="0 0 256 256" xml:space="preserve">
<desc>Created with Fabric.js 1.7.22</desc>
<defs>
</defs>
<g transform="translate(128 128) scale(0.72 0.72)" style="">
	<g style="stroke: none; stroke-width: 0; stroke-dasharray: none; stroke-linecap: butt; stroke-linejoin: miter; stroke-miterlimit: 10; fill: none; fill-rule: nonzero; opacity: 1;" transform="translate(-175.05 -175.05000000000004) scale(3.89 3.89)" >
	<circle cx="45" cy="45" r="45" style="stroke: none; stroke-width: 1; stroke-dasharray: none; stroke-linecap: butt; stroke-linejoin: miter; stroke-miterlimit: 10; fill: rgb(248,160,38); fill-rule: nonzero; opacity: 1;" transform="  matrix(1 0 0 1 0 0) "/>
	<path d="M 70.167 62.7 H 13.5 c -0.873 0 -1.645 -0.566 -1.907 -1.398 s 0.045 -1.738 0.759 -2.239 l 28.333 -19.855 c 0.689 -0.483 1.606 -0.483 2.296 0 l 28.333 19.855 c 0.715 0.501 1.022 1.407 0.76 2.239 S 71.04 62.7 70.167 62.7 z M 19.839 58.7 h 43.989 L 41.833 43.287 L 19.839 58.7 z" style="stroke: none; stroke-width: 1; stroke-dasharray: none; stroke-linecap: butt; stroke-linejoin: miter; stroke-miterlimit: 10; fill: rgb(227,146,33); fill-rule: nonzero; opacity: 1;" transform=" matrix(1 0 0 1 0 0) " stroke-linecap="round" />
	<path d="M 41.833 42.854 c -1.104 0 -2 -0.896 -2 -2 v -4.332 c 0 -1.104 0.896 -2 2 -2 c 1.348 0 2.444 -1.097 2.444 -2.444 s -1.096 -2.444 -2.444 -2.444 c -1.348 0 -2.445 1.097 -2.445 2.444 c 0 1.104 -0.896 2 -2 2 s -2 -0.896 -2 -2 c 0 -3.553 2.891 -6.444 6.445 -6.444 c 3.553 0 6.444 2.891 6.444 6.444 c 0 2.855 -1.867 5.283 -4.444 6.126 v 2.649 C 43.833 41.958 42.938 42.854 41.833 42.854 z" style="stroke: none; stroke-width: 1; stroke-dasharray: none; stroke-linecap: butt; stroke-linejoin: miter; stroke-miterlimit: 10; fill: rgb(227,146,33); fill-rule: nonzero; opacity: 1;" transform=" matrix(1 0 0 1 0 0) " stroke-linecap="round" />
	<path d="M 73.5 59.367 H 16.833 c -0.873 0 -1.645 -0.565 -1.907 -1.398 c -0.263 -0.832 0.045 -1.738 0.759 -2.239 l 28.333 -19.855 c 0.689 -0.483 1.606 -0.483 2.296 0 l 28.333 19.855 c 0.715 0.501 1.022 1.407 0.76 2.239 S 74.373 59.367 73.5 59.367 z M 23.172 55.367 h 43.989 L 45.167 39.954 L 23.172 55.367 z" style="stroke: none; stroke-width: 1; stroke-dasharray: none; stroke-linecap: butt; stroke-linejoin: miter; stroke-miterlimit: 10; fill: rgb(255,255,255); fill-rule: nonzero; opacity: 1;" transform=" matrix(1 0 0 1 0 0) " stroke-linecap="round" />
	<path d="M 45.167 39.521 c -1.104 0 -2 -0.896 -2 -2 v -4.332 c 0 -1.104 0.896 -2 2 -2 c 1.348 0 2.445 -1.097 2.445 -2.445 c 0 -1.348 -1.097 -2.444 -2.445 -2.444 c -1.348 0 -2.444 1.097 -2.444 2.444 c 0 1.104 -0.896 2 -2 2 s -2 -0.896 -2 -2 c 0 -3.553 2.891 -6.444 6.444 -6.444 s 6.445 2.891 6.445 6.444 c 0 2.856 -1.867 5.284 -4.445 6.127 v 2.649 C 47.166 38.625 46.271 39.521 45.167 39.521 z" style="stroke: none; stroke-width: 1; stroke-dasharray: none; stroke-linecap: butt; stroke-linejoin: miter; stroke-miterlimit: 10; fill: rgb(255,255,255); fill-rule: nonzero; opacity: 1;" transform=" matrix(1 0 0 1 0 0) " stroke-linecap="round" />
</g>
</g>
</svg>